<svg width="95" height="95" viewBox="0 0 95 95" fill="none" xmlns="http://www.w3.org/2000/svg">
<rect x="19" y="19" width="27.1429" height="27.1429" rx="2.24194" fill="#237C9D"/>
<rect x="19" y="48.8555" width="27.1429" height="27.1429" rx="2.24194" fill="#15B79E"/>
<rect x="48.8555" y="19" width="27.1429" height="27.1429" rx="2.24194" fill="#15B79E"/>
<rect x="48.8555" y="48.8555" width="27.1429" height="27.1429" rx="2.24194" fill="#237C9D"/>
<path fill-rule="evenodd" clip-rule="evenodd" d="M69.3311 24.593C69.4851 24.6032 69.6017 24.7364 69.5914 24.8905C69.5685 25.2335 69.4404 25.5904 69.2649 25.9324C69.0881 26.277 68.8548 26.6227 68.6041 26.9466C68.1032 27.594 67.5171 28.1751 67.1272 28.5152C67.0109 28.6167 66.8343 28.6046 66.7328 28.4883C66.6314 28.372 66.6434 28.1954 66.7597 28.0939C67.1274 27.7732 67.6871 27.2182 68.162 26.6045C68.3992 26.2979 68.6112 25.9818 68.7675 25.6772C68.9251 25.3701 69.0178 25.0905 69.0336 24.8533C69.0439 24.6993 69.1771 24.5827 69.3311 24.593Z" fill="#475467"/>
<path d="M66.0769 38.844C63.4068 41.5141 59.0776 41.5141 56.4075 38.844C53.7373 36.1738 53.7373 31.8447 56.4075 29.1746C59.0776 26.5044 63.4068 26.5044 66.0769 29.1746C68.747 31.8447 68.747 36.1738 66.0769 38.844Z" fill="#875BF7"/>
<path d="M65.6193 27.3104C65.7648 27.1649 66.0008 27.1649 66.1464 27.3104L67.9399 29.104C68.0855 29.2495 68.0855 29.4855 67.9399 29.6311L67.4034 30.1676C67.2578 30.3132 67.0218 30.3132 66.8763 30.1676L65.0827 28.3741C64.9372 28.2285 64.9372 27.9925 65.0827 27.847L65.6193 27.3104Z" fill="#875BF7"/>
<path d="M70.7853 22.9264L69.9909 24.4927L71.7327 24.7173L70.0635 25.2632L71.1363 26.6537L69.57 25.8594L69.3454 27.6012L68.7995 25.9319L67.409 27.0047L68.2034 25.4384L66.4616 25.2138L68.1308 24.6679L67.058 23.2775L68.6243 24.0718L68.8489 22.33L69.3948 23.9992L70.7853 22.9264Z" fill="#FAC515"/>
<path fill-rule="evenodd" clip-rule="evenodd" d="M39.71 54.6789C39.864 54.6892 39.9806 54.8224 39.9703 54.9764C39.9475 55.3194 39.8193 55.6764 39.6438 56.0184C39.467 56.363 39.2337 56.7086 38.983 57.0326C38.4821 57.6799 37.896 58.2611 37.5062 58.6011C37.3898 58.7026 37.2132 58.6906 37.1118 58.5742C37.0103 58.4579 37.0223 58.2813 37.1386 58.1798C37.5063 57.8591 38.066 57.3041 38.5409 56.6904C38.7781 56.3838 38.9901 56.0677 39.1464 55.7632C39.304 55.456 39.3967 55.1764 39.4125 54.9392C39.4228 54.7852 39.556 54.6686 39.71 54.6789Z" fill="#475467"/>
<path d="M36.4519 68.926C33.7818 71.5962 29.4526 71.5962 26.7825 68.926C24.1123 66.2559 24.1123 61.9267 26.7825 59.2566C29.4526 56.5864 33.7818 56.5864 36.4519 59.2566C39.122 61.9267 39.122 66.2559 36.4519 68.926Z" fill="#875BF7"/>
<path d="M35.9982 57.3925C36.1437 57.2469 36.3797 57.2469 36.5253 57.3925L38.3188 59.186C38.4644 59.3316 38.4644 59.5676 38.3188 59.7131L37.7823 60.2497C37.6367 60.3952 37.4008 60.3952 37.2552 60.2497L35.4616 58.4561C35.3161 58.3105 35.3161 58.0745 35.4616 57.929L35.9982 57.3925Z" fill="#875BF7"/>
<path d="M41.1642 53.0123L40.3698 54.5787L42.1116 54.8033L40.4424 55.3492L41.5152 56.7396L39.9489 55.9453L39.7243 57.6871L39.1784 56.0179L37.7879 57.0907L38.5823 55.5244L36.8405 55.2997L38.5097 54.7539L37.4369 53.3634L39.0032 54.1577L39.2278 52.4159L39.7737 54.0851L41.1642 53.0123Z" fill="#FAC515"/>
</svg>
