<svg width="95" height="95" viewBox="0 0 95 95" fill="none" xmlns="http://www.w3.org/2000/svg">
<path fill-rule="evenodd" clip-rule="evenodd" d="M76.6006 54.9832C77.158 56.3288 77.4448 57.771 77.4448 59.2275H77.4419C77.4173 61.5636 76.9452 63.874 76.0507 66.0335C75.1316 68.2525 73.7843 70.2688 72.0859 71.9672C70.3876 73.6656 68.3713 75.0128 66.1522 75.932C63.9332 76.8511 61.5548 77.3242 59.1529 77.3242C56.751 77.3242 54.3727 76.8511 52.1536 75.932C49.9346 75.0128 47.9183 73.6656 46.2199 71.9672C44.5215 70.2688 43.1743 68.2525 42.2551 66.0335C41.5509 64.3332 41.1085 62.5395 40.9401 60.7133C40.8549 59.7886 41.6157 59.0342 42.5443 59.0342L55.265 59.0342C55.2892 57.6435 55.5748 56.2693 56.1075 54.9832C56.6649 53.6376 57.4818 52.415 58.5117 51.3851C59.5416 50.3553 60.7642 49.5383 62.1098 48.981C63.4554 48.4236 64.8976 48.1367 66.3541 48.1367C67.8105 48.1367 69.2527 48.4236 70.5983 48.981C71.9439 49.5383 73.1665 50.3553 74.1964 51.3851C75.2263 52.415 76.0432 53.6376 76.6006 54.9832Z" fill="#237C9D"/>
<path d="M44.9192 54.4189C44.7381 53.8844 45.1558 53.3365 45.7192 53.3697L54.1203 53.864C56.5456 54.0066 58.8731 54.8698 60.805 56.3429C64.0215 58.7955 64.6408 63.3913 62.1881 66.6079L62.0442 66.7966C59.5916 70.0131 54.9957 70.6324 51.7792 68.1797C49.8473 66.7066 48.3989 64.6906 47.6194 62.3896L44.9192 54.4189Z" fill="#15B79E"/>
<circle cx="69.4987" cy="54.5573" r="1.36202" fill="white"/>
<path d="M79.822 57.4631C80.2398 57.8366 80.3176 58.4613 80.0041 58.9259L78.2364 61.5454C77.657 62.404 76.3227 62.0847 76.1948 61.0569L75.6065 56.331C75.4786 55.3032 76.6938 54.6665 77.466 55.3569L79.822 57.4631Z" fill="#FAC515"/>
<path fill-rule="evenodd" clip-rule="evenodd" d="M50.2568 25.2762C50.8142 26.6218 51.1011 28.064 51.1011 29.5205H51.0982C51.0735 31.8566 50.6015 34.1669 49.707 36.3264C48.7878 38.5455 47.4406 40.5618 45.7422 42.2602C44.0438 43.9585 42.0275 45.3058 39.8085 46.2249C37.5894 47.1441 35.2111 47.6172 32.8092 47.6172C30.4073 47.6172 28.0289 47.1441 25.8099 46.2249C23.5908 45.3058 21.5746 43.9585 19.8762 42.2602C18.1778 40.5618 16.8305 38.5455 15.9114 36.3264C15.2071 34.6262 14.7647 32.8324 14.5964 31.0062C14.5111 30.0815 15.272 29.3271 16.2006 29.3271L28.9212 29.3271C28.9455 27.9365 29.2311 26.5622 29.7638 25.2762C30.3211 23.9306 31.1381 22.708 32.1679 21.6781C33.1978 20.6482 34.4205 19.8313 35.766 19.2739C37.1116 18.7166 38.5538 18.4297 40.0103 18.4297C41.4668 18.4297 42.909 18.7166 44.2546 19.2739C45.6002 19.8313 46.8228 20.6482 47.8527 21.6781C48.8825 22.708 49.6995 23.9306 50.2568 25.2762Z" fill="#237C9D"/>
<path d="M18.5754 24.7158C18.3943 24.1812 18.8121 23.6334 19.3754 23.6666L27.7765 24.1608C30.2018 24.3035 32.5293 25.1666 34.4612 26.6397C37.6778 29.0924 38.297 33.6882 35.8443 36.9048L35.7005 37.0934C33.2478 40.31 28.652 40.9293 25.4354 38.4766C23.5035 37.0035 22.0552 34.9874 21.2756 32.6864L18.5754 24.7158Z" fill="#15B79E"/>
<circle cx="43.155" cy="24.8542" r="1.36202" fill="white"/>
<path d="M53.4782 27.76C53.896 28.1335 53.9738 28.7582 53.6603 29.2227L51.8926 31.8423C51.3132 32.7009 49.979 32.3816 49.851 31.3537L49.2628 26.6279C49.1348 25.6 50.3501 24.9634 51.1223 25.6537L53.4782 27.76Z" fill="#FAC515"/>
</svg>
