<svg width="81" height="80" viewBox="0 0 81 80" fill="none" xmlns="http://www.w3.org/2000/svg">
<g clip-path="url(#clip0_2378_58624)">
<path d="M40.334 80C62.4254 80 80.334 62.0914 80.334 40C80.334 17.9086 62.4254 0 40.334 0C18.2426 0 0.333984 17.9086 0.333984 40C0.333984 62.0914 18.2426 80 40.334 80Z" fill="#D80027"/>
<path d="M22.2246 24.3383L25.6777 34.9632H36.8496L27.8184 41.5414L31.2715 52.1664L22.2246 45.6039L13.1777 52.1664L16.6465 41.5414L7.59961 34.9632H18.7715L22.2246 24.3383Z" fill="#FFDA44"/>
<path d="M47.7559 61.9487L45.1152 58.6987L41.209 60.2143L43.4746 56.6987L40.834 53.4331L44.8809 54.5112L47.1621 50.9956L47.3809 55.1831L51.4434 56.2612L47.5215 57.7612L47.7559 61.9487Z" fill="#FFDA44"/>
<path d="M53.0059 52.4176L54.2559 48.4176L50.834 45.9957L55.0215 45.9332L56.2559 41.9332L57.6152 45.902L61.8027 45.8551L58.4433 48.3551L59.7871 52.3239L56.3652 49.902L53.0059 52.4176Z" fill="#FFDA44"/>
<path d="M60.084 29.3553L58.2402 33.121L61.2402 36.0429L57.0996 35.4491L55.2559 39.1991L54.5371 35.0741L50.3809 34.4804L54.0996 32.5272L53.3809 28.3866L56.3809 31.3085L60.084 29.3553Z" fill="#FFDA44"/>
<path d="M47.8652 17.9502L47.5527 22.1221L51.4434 23.7002L47.3652 24.7002L47.0684 28.8877L44.8652 25.3252L40.7871 26.3252L43.4902 23.1221L41.2715 19.5752L45.1621 21.1533L47.8652 17.9502Z" fill="#FFDA44"/>
</g>
<defs>
<clipPath id="clip0_2378_58624">
<rect width="80" height="80" fill="white" transform="translate(0.333984)"/>
</clipPath>
</defs>
</svg>
