<svg width="95" height="95" viewBox="0 0 95 95" fill="none" xmlns="http://www.w3.org/2000/svg">
<path d="M73.2034 75.4928C82.7564 75.4928 90.5006 67.7486 90.5006 58.1956C90.5006 48.6427 82.7564 40.8984 73.2034 40.8984C63.6505 40.8984 55.9062 48.6427 55.9062 58.1956C55.9062 67.7486 63.6505 75.4928 73.2034 75.4928Z" fill="#E5F1F7"/>
<path d="M34.0092 53.1939C34.0092 53.1939 34.8876 50.7615 32.5903 49.6129C29.6849 48.1939 27.3876 52.0453 22.3201 51.5047C18.9417 51.0993 14.6174 55.4912 16.5093 60.7614C16.5093 60.7614 16.2391 56.5723 20.0904 56.2344C20.0904 56.2344 19.0093 56.302 18.2661 59.8155C17.1174 65.0857 8.67153 62.3155 8.67153 62.3155C8.67153 62.3155 11.104 66.5046 13.131 64.8155C13.131 64.8155 6.50938 65.6263 4.14453 72.2479C4.14453 72.2479 8.19856 66.7073 16.1715 68.2614C27.1174 70.4235 34.0092 53.1939 34.0092 53.1939Z" fill="#FD6D73"/>
<path d="M31.9878 57.3132C33.4805 57.3132 34.6905 56.1334 34.6905 54.6781C34.6905 53.2228 33.4805 52.043 31.9878 52.043C30.4952 52.043 29.2852 53.2228 29.2852 54.6781C29.2852 56.1334 30.4952 57.3132 31.9878 57.3132Z" fill="#CAE3EE"/>
<path d="M47.9359 77.3169C40.9765 82.0466 32.3954 80.3574 23.4766 77.3169V65.1548C23.4766 58.9386 28.5441 53.8711 34.7603 53.8711H36.5846C42.8008 53.8711 47.8683 58.9386 47.8683 65.1548L47.9359 77.3169Z" fill="#237C9D"/>
<path d="M45.4349 65.4219L45.7051 68.5975L38.2052 71.7732L29.2188 68.5975L29.962 65.4219H45.4349Z" fill="#CAE3EE"/>
<path d="M46.4455 62.3162L45.432 65.4243H29.9591L28.4727 62.3162L38.2023 58.4648L46.4455 62.3162Z" fill="#CAE3EE"/>
<path d="M43.6068 66.915H32.796C32.5258 66.915 32.3906 66.7123 32.3906 66.5096V63.4015C32.3906 63.1312 32.5933 62.9961 32.796 62.9961H43.6068C43.877 62.9961 44.0122 63.1988 44.0122 63.4015V66.5096C44.0122 66.7123 43.877 66.915 43.6068 66.915Z" fill="#475467"/>
<path d="M30.8373 34.0074C32.0535 35.1561 33.067 36.0344 33.9454 36.7777C37.1211 39.4128 38.4724 39.7506 38.4724 39.7506L39.8237 30.4939C39.8237 30.4939 33.067 29.0075 32.1211 27.7912C30.6346 25.8318 30.8373 25.8994 28.6076 22.8588C28.1346 22.2507 27.7292 21.9805 27.459 21.9805C25.9725 22.1832 26.986 30.3588 30.8373 34.0074Z" fill="#15B79E"/>
<path d="M30.8373 34.0074C32.0535 35.1561 33.067 36.0344 33.9454 36.7777C33.9454 35.6966 33.7427 32.5209 31.04 30.021C28.4725 27.5885 27.6617 23.6696 27.459 21.9805C25.9725 22.1832 26.986 30.3588 30.8373 34.0074Z" fill="#237C9D"/>
<path d="M59.2833 34.0074C58.0671 35.1561 57.0536 36.0344 56.1752 36.7777C52.9996 39.4128 51.6482 39.7506 51.6482 39.7506L50.2969 30.4939C50.2969 30.4939 57.0536 29.0075 57.9995 27.7912C59.486 25.8318 59.2833 25.8994 61.513 22.8588C61.986 22.2507 62.3914 21.9805 62.6617 21.9805C64.1481 22.1832 63.1346 30.3588 59.2833 34.0074Z" fill="#15B79E"/>
<path d="M59.2839 34.0074C58.0677 35.1561 57.0542 36.0344 56.1758 36.7777C56.1758 35.6966 56.3785 32.5209 59.0812 30.021C61.6487 27.5885 62.4595 23.6696 62.6622 21.9805C64.1487 22.1832 63.1352 30.3588 59.2839 34.0074Z" fill="#237C9D"/>
<path d="M45.0958 46.2357C51.4396 46.2357 56.5822 40.5183 56.5822 33.4655C56.5822 26.4127 51.4396 20.6953 45.0958 20.6953C38.752 20.6953 33.6094 26.4127 33.6094 33.4655C33.6094 40.5183 38.752 46.2357 45.0958 46.2357Z" fill="#15B79E"/>
<path d="M56.0363 28.738C56.0363 30.765 51.1039 32.4542 45.0904 32.4542C39.0769 32.4542 34.1445 30.8326 34.1445 28.738C34.1445 28.4002 34.2797 27.9948 34.4824 27.4542C35.6986 24.684 39.9553 19.8867 45.0904 19.8867C50.158 19.8867 54.4823 24.684 55.6985 27.4542C55.9012 27.9948 56.0363 28.4677 56.0363 28.738Z" fill="#237C9D"/>
<path d="M55.7005 27.4555C54.4843 29.1175 50.2275 30.2948 45.0924 30.2948C40.0249 30.2948 35.7006 29.1175 34.4844 27.4555C35.7006 24.6161 39.9573 19.6992 45.0924 19.6992C50.16 19.6992 54.4167 24.6161 55.7005 27.4555Z" fill="#E5F1F7"/>
<path d="M48.1318 21.1034H42.0508C42.0508 19.4818 43.1994 17.4548 44.7535 15.2927C44.8886 15.0899 45.294 15.0899 45.4967 15.2927C46.9832 17.4548 48.1318 19.4818 48.1318 21.1034Z" fill="#237C9D"/>
<path d="M45.0913 22.1856C46.7705 22.1856 48.1318 21.7016 48.1318 21.1045C48.1318 20.5075 46.7705 20.0234 45.0913 20.0234C43.4121 20.0234 42.0508 20.5075 42.0508 21.1045C42.0508 21.7016 43.4121 22.1856 45.0913 22.1856Z" fill="#237C9D"/>
<path d="M40.4988 39.4117C41.8422 39.4117 42.9312 38.3227 42.9312 36.9793C42.9312 35.6359 41.8422 34.5469 40.4988 34.5469C39.1554 34.5469 38.0664 35.6359 38.0664 36.9793C38.0664 38.3227 39.1554 39.4117 40.4988 39.4117Z" fill="#475467"/>
<path d="M49.6902 39.4117C51.0336 39.4117 52.1226 38.3227 52.1226 36.9793C52.1226 35.6359 51.0336 34.5469 49.6902 34.5469C48.3468 34.5469 47.2578 35.6359 47.2578 36.9793C47.2578 38.3227 48.3468 39.4117 49.6902 39.4117Z" fill="#475467"/>
<mask id="mask0_1629_37185" style="mask-type:alpha" maskUnits="userSpaceOnUse" x="61" y="49" width="25" height="20">
<path d="M65.0781 49.6133H81.332L85.332 57.9921L75.332 68.5977H73.2051H71.0781L61.0781 57.9921L65.0781 49.6133Z" fill="#D9D9D9"/>
</mask>
<g mask="url(#mask0_1629_37185)">
<rect x="57.8164" y="46.8828" width="34.1836" height="25.3633" fill="white"/>
<mask id="mask1_1629_37185" style="mask-type:alpha" maskUnits="userSpaceOnUse" x="61" y="49" width="25" height="20">
<path fill-rule="evenodd" clip-rule="evenodd" d="M72.8215 49.6133H65.5081L68.9367 57.0407L72.8215 49.6133ZM64.8479 50.0919L61.2891 57.5465H68.289L64.8479 50.0919ZM61.4106 58.3465L71.0764 68.5977H72.2534L68.6314 58.3465H61.4106ZM73.2601 68.5977H73.2033H73.1019L69.4798 58.3465H73.3771H77.2549L73.2601 68.5977ZM74.1187 68.5977H75.3303L84.996 58.3465H78.1135L74.1187 68.5977ZM85.1176 57.5465L81.5434 50.0598L78.4389 57.5465H85.1176ZM80.8626 49.6133H73.9328L77.7981 57.0033L80.8626 49.6133ZM73.3771 57.5465H77.1794L73.3771 50.2771L69.5749 57.5465H73.3771Z" fill="#D9D9D9"/>
</mask>
<g mask="url(#mask1_1629_37185)">
<path d="M73.6602 69.0925L77.9805 58.0977H86.2099L75.9223 69.0925H73.6602Z" fill="#FD6D73"/>
<path d="M77.5781 58.0781H68.9844L73.2467 69.3629L77.5781 58.0781Z" fill="#237C9D"/>
<path d="M68.7148 57.8086H60.7969L71.2217 69.9431H73.0497L68.7148 57.8086Z" fill="#237C9D"/>
<path d="M60.3359 57.908L64.3242 49.6793L64.9549 49.3008L68.699 57.908H60.3359Z" fill="#237C9D"/>
<path d="M68.7969 57.9637L73.3164 49.4609L77.8402 57.9637H68.7969Z" fill="#237C9D"/>
<path d="M81.8289 48.9727C83.1417 51.8059 85.7759 57.5383 85.8133 57.7972H78.0347L73.4648 48.9727H81.8289Z" fill="#15B79E"/>
<path d="M73.5117 48.8633H65.1484L68.699 57.7436L73.5117 48.8633Z" fill="#15B79E"/>
</g>
</g>
</svg>
