<svg width="80" height="80" viewBox="0 0 80 80" fill="none" xmlns="http://www.w3.org/2000/svg">
<g clip-path="url(#clip0_1853_129579)">
<rect width="80" height="79.9996" rx="39.9998" fill="#EDEEEE"/>
<mask id="mask0_1853_129579" style="mask-type:luminance" maskUnits="userSpaceOnUse" x="0" y="0" width="80" height="80">
<path d="M40 79.9996C62.0914 79.9996 80 62.0911 80 39.9998C80 17.9085 62.0914 0 40 0C17.9086 0 0 17.9085 0 39.9998C0 62.0911 17.9086 79.9996 40 79.9996Z" fill="white"/>
</mask>
<g mask="url(#mask0_1853_129579)">
<path d="M0 0H80V79.9996H0V0Z" fill="#D80027"/>
<path d="M44.1241 30.2656C43.2178 34.0468 41.6085 33.328 40.8116 36.6249C38.608 36.0485 36.7181 34.6312 35.5477 32.6772C34.3772 30.7232 34.0195 28.3882 34.5512 26.1734C35.0829 23.9586 36.4617 22.0405 38.3917 20.8308C40.3217 19.6211 42.649 19.2163 44.8741 19.7031C43.296 26.2968 44.9366 26.8906 44.1241 30.2656ZM32.0303 33.0624C35.3428 35.0937 34.1553 36.4061 37.046 38.1874C35.7985 40.0634 33.8721 41.3825 31.672 41.8674C29.4719 42.3523 27.1694 41.9651 25.2489 40.7873C23.3284 39.6095 21.9394 37.7329 21.3741 35.552C20.8089 33.3712 21.1113 31.0561 22.2178 29.0937C27.9991 32.6405 29.0616 31.2499 32.0303 33.0624ZM30.9366 45.453C33.9053 42.9217 34.796 44.453 37.3741 42.2655C38.7544 44.0338 39.3987 46.2668 39.1724 48.4987C38.9461 50.7305 37.8668 52.7888 36.1595 54.2441C34.4523 55.6993 32.2491 56.4392 30.0096 56.3092C27.77 56.1793 25.6672 55.1896 24.1397 53.5467C29.296 49.1405 28.296 47.703 30.9522 45.453H30.9366ZM42.4053 50.2967C40.9053 46.703 42.6397 46.3436 41.3428 43.2186C43.4478 42.4601 45.764 42.5413 47.8106 43.4455C49.8573 44.3498 51.477 46.0075 52.3336 48.0745C53.1901 50.1415 53.2177 52.459 52.4106 54.5458C51.6034 56.6326 50.0236 58.3284 47.9991 59.281C45.4053 53.0311 43.7335 53.5154 42.4053 50.3123V50.2967ZM50.5616 40.9218C46.671 41.2343 46.8585 39.4686 43.4835 39.7343C43.3807 37.4777 44.1593 35.2695 45.6548 33.5765C47.1503 31.8835 49.2455 30.8383 51.4975 30.6618C53.7495 30.4853 55.982 31.1913 57.723 32.6307C59.464 34.07 60.5771 36.1299 60.8272 38.3749C54.0616 38.9061 54.0147 40.6405 50.5616 40.9218Z" fill="#EEEEEE"/>
</g>
</g>
<defs>
<clipPath id="clip0_1853_129579">
<rect width="80" height="79.9996" rx="39.9998" fill="white"/>
</clipPath>
</defs>
</svg>
