<svg width="80" height="80" viewBox="0 0 80 80" fill="none" xmlns="http://www.w3.org/2000/svg">
<g clip-path="url(#clip0_1853_129551)">
<rect x="0.333984" y="0.000366211" width="80" height="79.9996" rx="39.9998" fill="#EDEEEE"/>
<mask id="mask0_1853_129551" style="mask-type:luminance" maskUnits="userSpaceOnUse" x="0" y="0" width="80" height="80">
<path d="M40.334 80C62.4254 80 80.334 62.0915 80.334 40.0002C80.334 17.9089 62.4254 0.000366211 40.334 0.000366211C18.2426 0.000366211 0.333984 17.9089 0.333984 40.0002C0.333984 62.0915 18.2426 80 40.334 80Z" fill="white"/>
</mask>
<g mask="url(#mask0_1853_129551)">
<path d="M0.333984 0.000366211H80.334V80H0.333984V0.000366211Z" fill="#EEEEED"/>
<path d="M55.0215 52.3439L58.7715 48.5939L61.2715 51.0939L57.5215 54.6876L55.0215 52.3439ZM48.9277 58.4376L52.6777 54.6876L55.0215 57.1876L51.4277 60.9376L48.9277 58.4376ZM62.5215 59.6876L66.1152 55.9376L68.6152 58.4376L64.8652 62.1876L62.5215 59.6876ZM56.2715 65.7813L60.0215 62.1876L62.5215 64.5313L58.7715 68.2813L56.2715 65.7813ZM58.7715 55.9376L62.5215 52.3439L64.8652 54.6876L61.2715 58.4376L58.7715 55.9376ZM52.6777 62.1876L56.2715 58.4376L58.7715 60.9376L55.0215 64.5313L52.6777 62.1876ZM62.5215 27.6565L52.6777 17.8128L55.0215 15.469L65.0215 25.3127L62.5215 27.6565ZM52.6777 25.3127L48.9277 21.5628L51.4277 19.0628L55.0215 22.8128L52.6777 25.3127ZM58.7715 31.4065L55.0215 27.6565L57.5215 25.3127L61.2715 28.9065L58.7715 31.4065ZM60.0215 17.8128L56.2715 14.219L58.7715 11.7191L62.5215 15.469L60.0215 17.8128ZM66.1152 24.0627L62.5215 20.3128L64.8652 17.8128L68.6152 21.5628L66.1152 24.0627ZM14.5527 55.9376L24.3965 65.7813L21.8965 68.2813L12.0527 58.4376L14.5527 55.9376ZM24.3965 58.4376L27.9902 62.1876L25.6465 64.5313L21.8965 60.9376L24.3965 58.4376ZM18.1465 52.3439L21.8965 55.9376L19.3965 58.4376L15.8027 54.6876L18.1465 52.3439ZM21.8965 48.5939L31.7402 58.4376L29.2402 60.9376L19.3965 51.0939L21.8965 48.5939ZM24.3965 14.219L14.5527 24.0627L12.0527 21.5628L21.8965 11.7191L24.3965 14.219ZM27.9902 17.8128L18.1465 27.6565L15.8027 25.1565L25.6465 15.3128L27.9902 17.8128ZM31.7402 21.5628L21.8965 31.4065L19.3965 28.9065L29.2402 19.0628L31.7402 21.5628Z" fill="#333333"/>
<path d="M50.1777 49.8439L30.4902 30.1565C31.7829 28.8638 33.3176 27.8384 35.0066 27.1388C36.6956 26.4392 38.5058 26.0791 40.334 26.0791C42.1621 26.0791 43.9724 26.4392 45.6614 27.1388C47.3504 27.8384 48.885 28.8638 50.1777 30.1565C51.4704 31.4492 52.4959 32.9838 53.1955 34.6728C53.8951 36.3618 54.2551 38.1721 54.2551 40.0002C54.2551 41.8283 53.8951 43.6386 53.1955 45.3276C52.4959 47.0166 51.4704 48.5512 50.1777 49.8439Z" fill="#D80027"/>
<path d="M50.177 49.8439C48.8843 51.1366 47.3497 52.162 45.6607 52.8616C43.9717 53.5612 42.1614 53.9213 40.3333 53.9213C38.5051 53.9213 36.6949 53.5612 35.0059 52.8616C33.3169 52.162 31.7822 51.1366 30.4895 49.8439C29.1968 48.5512 28.1714 47.0166 27.4718 45.3276C26.7722 43.6386 26.4121 41.8283 26.4121 40.0002C26.4121 38.1721 26.7722 36.3618 27.4718 34.6728C28.1714 32.9838 29.1968 31.4492 30.4895 30.1565L50.177 49.8439Z" fill="#0052B4"/>
<path d="M35.4121 42.0314C39.2522 42.0314 42.3652 38.9184 42.3652 35.0783C42.3652 31.2382 39.2522 28.1252 35.4121 28.1252C31.572 28.1252 28.459 31.2382 28.459 35.0783C28.459 38.9184 31.572 42.0314 35.4121 42.0314Z" fill="#D80027"/>
<path d="M45.2559 51.8751C49.096 51.8751 52.209 48.7621 52.209 44.922C52.209 41.0819 49.096 37.9689 45.2559 37.9689C41.4158 37.9689 38.3027 41.0819 38.3027 44.922C38.3027 48.7621 41.4158 51.8751 45.2559 51.8751Z" fill="#0052B4"/>
</g>
</g>
<defs>
<clipPath id="clip0_1853_129551">
<rect x="0.333984" y="0.000366211" width="80" height="79.9996" rx="39.9998" fill="white"/>
</clipPath>
</defs>
</svg>
