<svg width="95" height="95" viewBox="0 0 95 95" fill="none" xmlns="http://www.w3.org/2000/svg">
<rect x="19" y="19" width="27.1429" height="27.1429" rx="2.24194" fill="#237C9D"/>
<path d="M27.0714 38.0724H38.0712C39.1509 38.0724 40.0957 37.1952 40.0957 36.0479C40.0957 34.9007 39.2184 34.0234 38.0712 34.0234H27.0714C25.9916 34.0234 25.0469 34.9007 25.0469 36.0479C25.0469 37.1952 25.9916 38.0724 27.0714 38.0724Z" fill="white"/>
<path d="M27.0714 31.1193H38.0712C39.1509 31.1193 40.0957 30.242 40.0957 29.0948C40.0957 27.9476 39.2184 27.0703 38.0712 27.0703H27.0714C25.9916 27.0703 25.0469 27.9476 25.0469 29.0948C25.0469 30.242 25.9916 31.1193 27.0714 31.1193Z" fill="white"/>
<rect x="48.8555" y="19" width="27.1429" height="27.1429" rx="2.24194" fill="white"/>
<path d="M53.7227 32.5726C53.7227 27.7812 57.6367 23.8672 62.428 23.8672C67.2193 23.8672 71.1334 27.7812 71.1334 32.5726C71.1334 37.3639 67.2193 41.2779 62.428 41.2779C57.6367 41.2779 53.7227 37.3639 53.7227 32.5726ZM57.7717 32.5726C57.7717 35.1369 59.8637 37.2289 62.428 37.2289C64.9924 37.2289 67.0844 35.1369 67.0844 32.5726C67.0844 30.0082 64.9924 27.9162 62.428 27.9162C59.8637 27.9162 57.7717 30.0082 57.7717 32.5726Z" fill="#15B79E"/>
<rect x="19" y="48.8555" width="27.1429" height="27.1429" rx="2.24194" fill="#15B79E"/>
<path d="M26.9698 70.056C27.5097 70.056 27.9821 69.8535 28.387 69.4486L39.5892 58.2463C40.399 57.4365 40.399 56.2218 39.5892 55.412C38.7794 54.6022 37.5647 54.6022 36.7549 55.412L25.5527 66.6143C24.7429 67.4241 24.7429 68.6388 25.5527 69.4486C25.9576 69.8535 26.4299 70.056 26.9698 70.056Z" fill="#237C9D"/>
<path d="M38.1721 70.056C38.7119 70.056 39.1843 69.8535 39.5892 69.4486C40.399 68.6388 40.399 67.4241 39.5892 66.6143L28.387 55.412C27.5772 54.6022 26.3625 54.6022 25.5527 55.412C24.7429 56.2218 24.7429 57.4365 25.5527 58.2463L36.7549 69.4486C37.1598 69.8535 37.6322 70.056 38.1721 70.056Z" fill="#237C9D"/>
<rect x="48.8555" y="48.8555" width="27.1429" height="27.1429" rx="2.24194" fill="#FAC515"/>
<path d="M68.1669 69.6445C71.9459 66.0679 72.1484 60.1293 68.5718 56.2828C67.8294 55.473 66.5472 55.4055 65.7374 56.2153C64.9276 57.0251 64.8602 58.2398 65.67 59.0496C67.6945 61.2091 67.627 64.6507 65.4 66.7427C63.1731 68.8347 59.7989 68.6997 57.7069 66.4728C56.9646 65.663 55.6824 65.5955 54.8726 66.4053C54.0628 67.2151 53.9953 68.4298 54.8051 69.2396C58.3818 72.9512 64.3878 73.1536 68.1669 69.6445Z" fill="#FD6D73"/>
<path d="M55 59.5766C55 61.5336 56.6196 63.1532 58.5766 63.1532C60.5336 63.1532 62.1532 61.5336 62.1532 59.5766C62.1532 57.6196 60.5336 56 58.5766 56C56.5521 56 55 57.6196 55 59.5766Z" fill="white"/>
</svg>
