<svg width="95" height="95" viewBox="0 0 95 95" fill="none" xmlns="http://www.w3.org/2000/svg">
<rect x="15.832" y="15.832" width="63.3333" height="63.3333" rx="2.199" stroke="#237C9D"/>
<rect x="19.0039" y="19.0039" width="27.1429" height="27.1429" rx="2.24194" fill="#237C9D"/>
<rect x="19.0039" y="48.8594" width="27.1429" height="27.1429" rx="2.24194" fill="#15B79E"/>
<rect x="48.8594" y="48.8594" width="27.1429" height="27.1429" rx="2.24194" fill="#237C9D"/>
<path d="M40.0101 35.1335C41.8769 32.9818 41.8003 29.6931 39.7803 27.6347C37.758 25.5742 33.5683 25.9859 32.4141 27.8948C31.4992 25.9859 27.0696 25.5742 25.0473 27.6347C23.0274 29.6931 22.9508 32.9818 24.8175 35.1334C27.2622 37.9512 28.5274 38.8726 31.0592 40.8467C31.8601 41.4712 32.9839 41.4934 33.7972 40.8852C36.2674 39.0378 37.5818 37.9324 40.0101 35.1335Z" fill="#FD6D73"/>
<path d="M31.6809 52.7876C31.887 52.3728 32.4787 52.3728 32.6848 52.7876L35.101 57.6506C35.1826 57.8149 35.3394 57.9288 35.5208 57.9557L40.8925 58.7509C41.3507 58.8187 41.5335 59.3814 41.2027 59.7056L37.3244 63.5063C37.1934 63.6347 37.1335 63.8191 37.164 63.9999L38.0676 69.3544C38.1447 69.8111 37.666 70.1589 37.2555 69.9445L32.4423 67.4304C32.2797 67.3455 32.0859 67.3455 31.9233 67.4304L27.1101 69.9445C26.6996 70.1589 26.2209 69.8111 26.298 69.3544L27.2016 63.9999C27.2322 63.8191 27.1723 63.6347 27.0413 63.5063L23.1629 59.7056C22.8321 59.3814 23.0149 58.8187 23.4731 58.7509L28.8448 57.9557C29.0262 57.9288 29.183 57.8149 29.2647 57.6506L31.6809 52.7876Z" fill="#FAC515"/>
<path d="M61.6066 52.7876C61.8127 52.3728 62.4044 52.3728 62.6105 52.7876L65.0267 57.6506C65.1084 57.8149 65.2652 57.9288 65.4466 57.9557L70.8183 58.7509C71.2765 58.8187 71.4593 59.3814 71.1285 59.7056L67.2501 63.5063C67.1191 63.6347 67.0592 63.8191 67.0898 63.9999L67.9934 69.3544C68.0705 69.8111 67.5918 70.1589 67.1813 69.9445L62.3681 67.4304C62.2055 67.3455 62.0117 67.3455 61.8491 67.4304L57.0359 69.9445C56.6254 70.1589 56.1467 69.8111 56.2238 69.3544L57.1274 63.9999C57.1579 63.8191 57.098 63.6347 56.967 63.5063L53.0887 59.7056C52.7579 59.3814 52.9407 58.8187 53.3989 58.7509L58.7706 57.9557C58.952 57.9288 59.1088 57.8149 59.1904 57.6506L61.6066 52.7876Z" fill="#FAC515"/>
</svg>
