<svg width="80" height="80" viewBox="0 0 80 80" fill="none" xmlns="http://www.w3.org/2000/svg">
<g clip-path="url(#clip0_1853_129705)">
<rect x="0.666016" width="80" height="79.9996" rx="39.9998" fill="#EDEEEE"/>
<mask id="mask0_1853_129705" style="mask-type:luminance" maskUnits="userSpaceOnUse" x="0" y="0" width="80" height="80">
<path d="M40.666 79.9996C62.7574 79.9996 80.666 62.0911 80.666 39.9998C80.666 17.9085 62.7574 0 40.666 0C18.5746 0 0.666016 17.9085 0.666016 39.9998C0.666016 62.0911 18.5746 79.9996 40.666 79.9996Z" fill="white"/>
</mask>
<g mask="url(#mask0_1853_129705)">
<path d="M0.666016 39.9998L40.9316 32.0311L80.666 39.9998V79.9996H0.666016V39.9998Z" fill="#EDEEEE"/>
<path d="M0.666016 0H80.666V39.9998H0.666016V0Z" fill="#D80027"/>
<path d="M25.0107 20.8749C25.0131 18.1005 25.9621 15.41 27.7008 13.248C29.4395 11.086 31.8639 9.5819 34.5732 8.98433C33.716 8.79717 32.8412 8.70288 31.9638 8.70308C30.2416 8.68474 28.5351 9.03161 26.9568 9.72083C25.3784 10.41 23.9641 11.426 22.8069 12.7016C21.6498 13.9773 20.7762 15.4837 20.2437 17.1215C19.7112 18.7594 19.5318 20.4915 19.7175 22.2038C19.9032 23.916 20.4497 25.5694 21.3209 27.0551C22.1921 28.5407 23.3684 29.8248 24.772 30.8228C26.1757 31.8207 27.775 32.5098 29.4644 32.8447C31.1538 33.1796 32.895 33.1526 34.5732 32.7655C31.8639 32.1679 29.4395 30.6638 27.7008 28.5018C25.9621 26.3398 25.0131 23.6493 25.0107 20.8749ZM40.6669 9.56245L41.5263 12.2187H44.3388L42.0575 13.8593L42.9325 16.5155L40.6669 14.8749L38.4013 16.5155L39.2763 13.8593L37.0107 12.2187H39.8075L40.6669 9.56245Z" fill="#EDEEEE"/>
<path d="M33.8848 14.7811L34.7598 17.4374H37.541L35.291 19.078L36.1504 21.7342L33.8848 20.0936L31.6348 21.7342L32.4941 19.078L30.2285 17.4374H33.0254L33.8848 14.7811ZM47.4473 14.7811L48.3066 17.4374H51.1035L48.8379 19.078L49.6973 21.7342L47.4473 20.0936L45.1816 21.7342L46.041 19.078L43.791 17.4374H46.5723L47.4473 14.7811ZM44.8379 22.6092L45.6973 25.2655H48.4941L46.2285 26.9061L47.0879 29.5623L44.8379 27.9217L42.5723 29.5623L43.4316 26.9061L41.1816 25.2655H43.9785L44.8379 22.6092ZM36.4941 22.6092L37.3535 25.2655H40.166L37.9004 26.9061L38.7598 29.5623L36.4941 27.9217L34.2441 29.5623L35.1035 26.9061L32.8379 25.2655H35.6348L36.4941 22.6092Z" fill="#EDEEEE"/>
</g>
</g>
<defs>
<clipPath id="clip0_1853_129705">
<rect x="0.666016" width="80" height="79.9996" rx="39.9998" fill="white"/>
</clipPath>
</defs>
</svg>
