<svg width="80" height="80" viewBox="0 0 80 80" fill="none" xmlns="http://www.w3.org/2000/svg">
<g clip-path="url(#clip0_1853_129537)">
<rect y="0.000366211" width="80" height="79.9996" rx="39.9998" fill="#EDEEEE"/>
<mask id="mask0_1853_129537" style="mask-type:luminance" maskUnits="userSpaceOnUse" x="0" y="0" width="80" height="80">
<path d="M40 80C62.0914 80 80 62.0915 80 40.0002C80 17.9089 62.0914 0.000366211 40 0.000366211C17.9086 0.000366211 0 17.9089 0 40.0002C0 62.0915 17.9086 80 40 80Z" fill="white"/>
</mask>
<g mask="url(#mask0_1853_129537)">
<path d="M0 40.0002L40 0.000366211H80V80H0V40.0002Z" fill="#D80027"/>
<path d="M40 40.0002V0.000366211H0V40.0002H40Z" fill="#0052B4"/>
<path d="M34.7812 23.4065L29.8906 25.7034L32.5 30.4377L27.1875 29.4221L26.5156 34.7814L22.8281 30.844L19.125 34.7814L18.4531 29.4221L13.1406 30.4377L15.75 25.7034L10.875 23.4065L15.75 21.1096L13.1562 16.3753L18.4688 17.3909L19.125 12.0316L22.8281 15.9847L26.5156 12.0316L27.1875 17.3909L32.5 16.3753L29.8906 21.1096L34.7812 23.4065Z" fill="#EEEEEE"/>
<path d="M22.8281 30.8596C26.9444 30.8596 30.2812 27.5227 30.2812 23.4065C30.2812 19.2903 26.9444 15.9534 22.8281 15.9534C18.7119 15.9534 15.375 19.2903 15.375 23.4065C15.375 27.5227 18.7119 30.8596 22.8281 30.8596Z" fill="#0052B4"/>
<path d="M22.8281 29.8909C26.4093 29.8909 29.3125 26.9877 29.3125 23.4065C29.3125 19.8253 26.4093 16.9222 22.8281 16.9222C19.2469 16.9222 16.3438 19.8253 16.3438 23.4065C16.3438 26.9877 19.2469 29.8909 22.8281 29.8909Z" fill="#EEEEEE"/>
</g>
</g>
<defs>
<clipPath id="clip0_1853_129537">
<rect y="0.000366211" width="80" height="79.9996" rx="39.9998" fill="white"/>
</clipPath>
</defs>
</svg>
