<svg width="80" height="80" viewBox="0 0 80 80" fill="none" xmlns="http://www.w3.org/2000/svg">
<g clip-path="url(#clip0_2378_59190)">
<path d="M40 80C62.0914 80 80 62.0914 80 40C80 17.9086 62.0914 0 40 0C17.9086 0 0 17.9086 0 40C0 62.0914 17.9086 80 40 80Z" fill="#F0F0F0"/>
<path d="M38.2617 40H80.0008C80.0008 36.3897 79.5195 32.8922 78.6228 29.5652H38.2617V40Z" fill="#D80027"/>
<path d="M38.2617 19.1284H74.1298C71.6813 15.1328 68.5505 11.6011 64.9002 8.6936H38.2617V19.1284Z" fill="#D80027"/>
<path d="M40.0009 80.0001C49.4148 80.0001 58.0675 76.7463 64.9003 71.3044H15.1016C21.9344 76.7463 30.587 80.0001 40.0009 80.0001Z" fill="#D80027"/>
<path d="M5.87188 60.8664H74.13C76.0958 57.6588 77.6203 54.1525 78.623 50.4316H1.37891C2.38156 54.1525 3.90609 57.6588 5.87188 60.8664Z" fill="#D80027"/>
<path d="M18.5287 6.24656H22.1739L18.7833 8.70984L20.0784 12.6956L16.688 10.2323L13.2975 12.6956L14.4163 9.25234C11.4309 11.7391 8.81437 14.6525 6.65812 17.8988H7.82609L5.66781 19.4667C5.33156 20.0277 5.00906 20.5975 4.7 21.1758L5.73062 24.3478L3.80781 22.9508C3.32984 23.9634 2.89266 24.9989 2.49969 26.0559L3.63516 29.5509H7.82609L4.43547 32.0142L5.73062 36L2.34016 33.5367L0.309219 35.0123C0.105937 36.6464 0 38.3108 0 40H40C40 17.9087 40 15.3044 40 0C32.0981 0 24.732 2.29219 18.5287 6.24656ZM20.0784 36L16.688 33.5367L13.2975 36L14.5927 32.0142L11.202 29.5509H15.393L16.688 25.5652L17.983 29.5509H22.1739L18.7833 32.0142L20.0784 36ZM18.7833 20.362L20.0784 24.3478L16.688 21.8845L13.2975 24.3478L14.5927 20.362L11.202 17.8988H15.393L16.688 13.913L17.983 17.8988H22.1739L18.7833 20.362ZM34.4263 36L31.0358 33.5367L27.6453 36L28.9405 32.0142L25.5498 29.5509H29.7408L31.0358 25.5652L32.3308 29.5509H36.5217L33.1311 32.0142L34.4263 36ZM33.1311 20.362L34.4263 24.3478L31.0358 21.8845L27.6453 24.3478L28.9405 20.362L25.5498 17.8988H29.7408L31.0358 13.913L32.3308 17.8988H36.5217L33.1311 20.362ZM33.1311 8.70984L34.4263 12.6956L31.0358 10.2323L27.6453 12.6956L28.9405 8.70984L25.5498 6.24656H29.7408L31.0358 2.26078L32.3308 6.24656H36.5217L33.1311 8.70984Z" fill="#0052B4"/>
</g>
<defs>
<clipPath id="clip0_2378_59190">
<rect width="80" height="80" fill="white"/>
</clipPath>
</defs>
</svg>
